# xmcd CD database file
#
# Track frame offsets:
#	150
#	53790
#	100210
#	133517
#	164265
#	192625
#	224967
#
# Disc length: 3361 seconds
#
# Revision: 0
# Processed by: cddbd v1.5.1PL0 Copyright (c) Steve Scherf et al.
# Submitted via: CDex 1.51
#
DISCID=6c0d1f07
DTITLE=Kurt Ellenberger Trio - Songs from Far West
DYEAR=1900
DGENRE=Jazz
TTITLE0=Lakspur in Aspen
TTITLE1=Herr Mann's Fell'd
TTITLE2=Internal Presence
TTITLE3=Nobilissima Visione
TTITLE4=Sorcerer's Apprentice
TTITLE5=In a Sentimental Mood 
TTITLE6=Far West
EXTD=
EXTT0=
EXTT1=
EXTT2=
EXTT3=
EXTT4=
EXTT5=
EXTT6=
PLAYORDER=
